<?xml version="1.0" encoding="UTF-8"?><svg version="1.1" width="70px" height="70px" viewBox="0 0 70.0 70.0" xmlns="http://www.w3.org/2000/svg" xmlns:xlink="http://www.w3.org/1999/xlink"><defs><clipPath id="i0"><path d="M1440,0 L1440,1067 L0,1067 L0,0 L1440,0 Z"></path></clipPath><clipPath id="i1"><path d="M283,0 L283,150 L0,150 L0,0 L283,0 Z"></path></clipPath><clipPath id="i2"><path d="M70,0 L70,70 L0,70 L0,0 L70,0 Z"></path></clipPath><clipPath id="i3"><path d="M12.375,0 L12.375,8.25 C12.375,10.5281746 14.2218254,12.375 16.5,12.375 L49.5,12.375 C51.7781746,12.375 53.625,10.5281746 53.625,8.25 L53.625,0 L57.75,0 C62.3063492,0 66,3.69365081 66,8.25 L66,57.75 C66,62.3063492 62.3063492,66 57.75,66 L8.25,66 C3.69365081,66 0,62.3063492 0,57.75 L0,8.25 C0,3.69365081 3.69365081,0 8.25,0 L12.375,0 Z M49.57425,22.930875 L29.984625,42.5205 L18.649125,29.29575 L13.95075,33.32175 L29.634,51.62025 L53.94675,27.3075 L49.57425,22.930875 Z M49.5,0 L49.5,4.125 C49.5,6.40317459 47.6531746,8.25 45.375,8.25 L20.625,8.25 C18.3468254,8.25 16.5,6.40317459 16.5,4.125 L16.5,0 L49.5,0 Z"></path></clipPath><linearGradient id="i4" x1="17.7753003px" y1="4.76285678e-14px" x2="66px" y2="66px" gradientUnits="userSpaceOnUse"><stop stop-color="#EEF1F5" offset="0%"></stop><stop stop-color="rgba(255, 255, 255, 0.5)" offset="100%"></stop><stop stop-color="#FFFFFF" offset="100%"></stop></linearGradient></defs><g transform="translate(-744.0 -194.0)"><g clip-path="url(#i0)"><g transform="translate(531.0 114.0)"><g clip-path="url(#i1)"><g transform="translate(213.0 80.0)"><g clip-path="url(#i2)"><g transform="translate(7.0 7.0)"><g clip-path="url(#i3)"><polygon points="0,0 63,0 63,63 0,63 0,0" stroke="none" fill="url(#i4)"></polygon></g></g></g></g></g></g></g></g></svg>