<?xml version="1.0" encoding="UTF-8"?><svg version="1.1" width="70px" height="70px" viewBox="0 0 70.0 70.0" xmlns="http://www.w3.org/2000/svg" xmlns:xlink="http://www.w3.org/1999/xlink"><defs><clipPath id="i0"><path d="M1440,0 L1440,1067 L0,1067 L0,0 L1440,0 Z"></path></clipPath><clipPath id="i1"><path d="M283,0 L283,150 L0,150 L0,0 L283,0 Z"></path></clipPath><clipPath id="i2"><path d="M69,0 L69,69 L0,69 L0,0 L69,0 Z"></path></clipPath><clipPath id="i3"><path d="M57.8313253,38.7530864 C67.3133225,38.7530864 75,46.4195192 75,55.8765432 C75,65.3335673 67.3133225,73 57.8313253,73 C48.3493281,73 40.6626506,65.3335673 40.6626506,55.8765432 C40.6626506,46.4195192 48.3493281,38.7530864 57.8313253,38.7530864 Z M59.4802982,34.3976437 L59.6385542,34.7712358 C53.8641174,34.4459398 48.204891,36.4585797 43.9672541,40.3445566 C39.7296173,44.2305336 37.2798283,49.6539832 37.1833978,55.3629531 L37.1799576,55.7127712 L37.1799576,56.059193 C37.2709555,61.8465588 39.786993,67.3380082 44.1294621,71.2270323 C40.5136556,71.85195 36.4299615,72.144031 31.8990221,72.0930868 C9.26496757,71.8417612 -2.55263041,63.6091497 0.464555481,47.6431818 C3.48174137,31.6806102 12.031008,14.7161325 31.8990221,14.4682032 C46.2039923,14.2881997 54.7704607,23.2883731 59.4802982,34.3976437 Z M67.0769175,57.1921529 L48.5891547,57.1921529 C47.7865894,57.1905363 47.0623273,57.6719867 46.7549789,58.4114184 C46.4476305,59.1508501 46.6179203,60.0021694 47.1862336,60.5673635 L53.7902282,67.1539648 C54.2914436,67.6532505 55.0216549,67.8479186 55.7057986,67.6646394 C56.3899422,67.4813601 56.9240805,66.9479781 57.1070087,66.2654132 C57.289937,65.5828483 57.093864,64.8547982 56.5926485,64.3555125 L53.3693517,61.1475305 L67.0769175,61.1475305 C68.1720481,61.1475305 69.0598268,60.26209 69.0598268,59.1698438 C69.0598268,58.0775975 68.1720481,57.1921529 67.0769175,57.1921529 Z M60.472923,44.0183705 C59.9464945,44.0183705 59.4417103,44.2273302 59.0700019,44.5991216 C58.6972288,44.969851 58.4877172,45.4733058 58.4877172,45.9983478 C58.4877172,46.5233898 58.6972288,47.0268445 59.0700019,47.3975739 L62.2898769,50.6055559 L48.5857329,50.6055559 C47.4906024,50.6055559 46.6028238,51.4909964 46.6028238,52.5832426 C46.6028238,53.6754888 47.4906024,54.5609333 48.5857329,54.5609333 L67.0769175,54.5609333 C67.8794829,54.56255 68.6037449,54.0810996 68.9110933,53.3416679 C69.2184417,52.6022361 69.0481519,51.7509169 68.4798386,51.1857228 L61.8758441,44.5991216 C61.5041357,44.2273302 60.9993515,44.0183705 60.472923,44.0183705 Z M29.8898586,34.924069 L23.09861,41.6589157 C22.0905879,42.6574255 22.0905879,44.1517939 23.09861,44.9023743 L29.8864182,51.637221 C30.8944403,52.6357308 32.4013132,52.6357308 33.1547495,51.637221 L39.9459979,44.9023743 C40.95402,43.9038645 40.95402,42.4060997 39.9459979,41.6589157 L33.1581897,34.924069 C32.1501676,33.9255592 30.6432947,33.9255592 29.8898586,34.924069 Z M42.2131878,0 C44.7246424,0 46.4895413,1.99701965 46.4895413,4.24196845 C46.4895413,4.73782703 46.4895413,5.48840756 46.2383959,5.98766248 L44.9792281,8.97979562 C44.2223514,10.9768153 42.4643331,11.975325 40.4517292,11.975325 L23.1020504,11.975325 C21.1232206,11.9561453 19.3446472,10.7793877 18.5745515,8.97979562 L17.0676786,5.98766248 C16.0596565,3.74271353 17.3188241,1.24643912 19.5791333,0.247929291 C20.2740837,0.0203776979 20.7522922,0.00339633163 21.2167392,0 L42.2131878,0 Z"></path></clipPath><linearGradient id="i4" x1="20.1992049px" y1="5.26800825e-14px" x2="75px" y2="73px" gradientUnits="userSpaceOnUse"><stop stop-color="#EEF1F5" offset="0%"></stop><stop stop-color="rgba(255, 255, 255, 0.5)" offset="100%"></stop><stop stop-color="#FFFFFF" offset="100%"></stop></linearGradient></defs><g transform="translate(-441.0 -194.0)"><g clip-path="url(#i0)"><g transform="translate(228.0 114.0)"><g clip-path="url(#i1)"><g transform="translate(213.5 80.5)"><g clip-path="url(#i2)"><g transform="translate(4.5 4.5)"><g clip-path="url(#i3)"><polygon points="7.10542736e-15,0 64.5,0 64.5,64.5 7.10542736e-15,64.5 7.10542736e-15,0" stroke="none" fill="url(#i4)"></polygon></g></g></g></g></g></g></g></g></svg>