<?xml version="1.0" encoding="UTF-8"?><svg version="1.1" width="70px" height="70px" viewBox="0 0 70.0 70.0" xmlns="http://www.w3.org/2000/svg" xmlns:xlink="http://www.w3.org/1999/xlink"><defs><clipPath id="i0"><path d="M1440,0 L1440,1067 L0,1067 L0,0 L1440,0 Z"></path></clipPath><clipPath id="i1"><path d="M283,0 L283,150 L0,150 L0,0 L283,0 Z"></path></clipPath><clipPath id="i2"><path d="M70,0 L70,70 L0,70 L0,0 L70,0 Z"></path></clipPath><clipPath id="i3"><path d="M36.8010258,30.9225473 C48.8767638,30.9225473 58.6743839,40.6101413 58.6743839,52.5502702 L58.6743839,57.1569582 C58.6743839,60.3833335 56.0279988,63 52.7649802,63 L7.52806648,63 C3.37435517,63 0,59.6635385 0,55.5564728 C0,41.9481132 11.1507879,30.9225473 24.9137035,30.9225473 L36.8010258,30.9225473 Z M52.9031111,31.8987342 C63.9989781,31.8987342 73,40.8045565 73,51.799919 L73,56.0295527 C73,58.9953517 70.5645296,61.4050633 67.5670275,61.4050633 L59.6985845,61.4050633 C59.1620998,61.4050633 58.8555371,60.8068482 59.1620998,60.3771443 C59.8518659,59.3997788 60.2521006,58.2201997 60.2521006,56.9479393 L60.2521006,52.2211973 C60.2521006,44.0905269 55.8410037,36.9877755 49.2584211,33.1204411 C48.6793582,32.774993 48.9263115,31.8987342 49.5990463,31.8987342 L52.9031111,31.8987342 Z M29.6813187,0 C38.0991093,0 44.9230769,6.78373606 44.9230769,15.1518986 C44.9230769,20.5651506 42.0180144,25.5672019 37.3021979,28.2738279 C32.5863814,30.980454 26.7762559,30.980454 22.0604395,28.2738279 C17.344623,25.5672019 14.4395604,20.5651506 14.4395604,15.1518986 C14.4395604,6.78373606 21.263528,0 29.6813187,0 Z M51.1891392,7.17778039 C57.441117,7.2455258 62.5283428,12.3010272 62.5711646,18.482796 C62.6139864,24.8085239 57.441117,29.948707 51.0521095,29.948707 C47.8062197,29.948707 44.8686465,28.6192033 42.7789443,26.4767547 C42.479192,26.1634321 42.4620633,25.6807461 42.7446869,25.3589554 C45.1598345,22.5729253 46.6157746,18.9570139 46.6157746,15.0023755 C46.6157746,13.0970358 46.2817648,11.2763778 45.656567,9.59967887 C45.4595869,9.05771557 45.7250818,8.45647504 46.2560717,8.21089792 C47.7548335,7.52497562 49.4248824,7.16084403 51.1891392,7.17778039 Z"></path></clipPath><linearGradient id="i4" x1="19.6605594px" y1="4.54636329e-14px" x2="73px" y2="63px" gradientUnits="userSpaceOnUse"><stop stop-color="#EEF1F5" offset="0%"></stop><stop stop-color="rgba(255, 255, 255, 0.5)" offset="100%"></stop><stop stop-color="#FFFFFF" offset="100%"></stop></linearGradient></defs><g transform="translate(-1047.0 -194.0)"><g clip-path="url(#i0)"><g transform="translate(834.0 114.0)"><g clip-path="url(#i1)"><g transform="translate(213.0 80.0)"><g clip-path="url(#i2)"><g transform="translate(7.0 9.0)"><g clip-path="url(#i3)"><polygon points="0,0 63,0 63,61 0,61 0,0" stroke="none" fill="url(#i4)"></polygon></g></g></g></g></g></g></g></g></svg>