<?xml version="1.0" encoding="UTF-8"?><svg version="1.1" width="70px" height="70px" viewBox="0 0 70.0 70.0" xmlns="http://www.w3.org/2000/svg" xmlns:xlink="http://www.w3.org/1999/xlink"><defs><clipPath id="i0"><path d="M1440,0 L1440,1067 L0,1067 L0,0 L1440,0 Z"></path></clipPath><clipPath id="i1"><path d="M283,0 L283,150 L0,150 L0,0 L283,0 Z"></path></clipPath><clipPath id="i2"><path d="M70,0 L70,70 L0,70 L0,0 L70,0 Z"></path></clipPath><clipPath id="i3"><path d="M51,0 C87.4171249,0 102,36.5 102,36.5 C102,36.5 87.4304792,73 51,73 C14.5695208,73 0,36.5 0,36.5 C0,36.5 14.5695208,0 51,0 Z M51,14.5839442 C38.9277298,14.5839442 29.1390416,24.3913123 29.1390416,36.4866202 C29.1390416,48.5819281 38.9277298,58.3892962 51,58.3892962 C63.058916,58.3892962 72.8476041,48.5953079 72.8609584,36.4866202 C72.8609584,24.3913123 63.0722702,14.5839442 51,14.5839442 Z M50.9866457,25.5553246 C57.0361351,25.5419721 61.9238021,30.452346 61.9238021,36.5 C61.9238021,42.547654 57.0227809,47.4446481 51,47.4446481 C44.9772191,47.4446481 40.0628437,42.5342742 40.0628437,36.5 C40.0628437,30.452346 44.9638649,25.5553246 50.9866457,25.5553246 Z"></path></clipPath><linearGradient id="i4" x1="27.4709187px" y1="5.26800825e-14px" x2="102px" y2="73px" gradientUnits="userSpaceOnUse"><stop stop-color="#EEF1F5" offset="0%"></stop><stop stop-color="rgba(255, 255, 255, 0.5)" offset="100%"></stop><stop stop-color="#FFFFFF" offset="100%"></stop></linearGradient></defs><g transform="translate(-1350.0 -194.0)"><g clip-path="url(#i0)"><g transform="translate(1137.0 114.0)"><g clip-path="url(#i1)"><g transform="translate(213.0 80.0)"><g clip-path="url(#i2)"><g transform="translate(2.0 7.0)"><g clip-path="url(#i3)"><polygon points="0,0 68,0 68,63 0,63 0,0" stroke="none" fill="url(#i4)"></polygon></g></g></g></g></g></g></g></g></svg>