<?xml version="1.0" encoding="UTF-8"?>
<svg width="41px" height="41px" viewBox="0 0 41 41" version="1.1" xmlns="http://www.w3.org/2000/svg" xmlns:xlink="http://www.w3.org/1999/xlink">
    <title>img/默认女头像@2x</title>
    <defs>
        <linearGradient x1="9.42187764%" y1="34.3055075%" x2="92.0006518%" y2="70.423543%" id="linearGradient-1">
            <stop stop-color="#FBEDEF" offset="0%"></stop>
            <stop stop-color="#F1D9E8" offset="100%"></stop>
        </linearGradient>
        <circle id="path-2" cx="20" cy="20" r="20"></circle>
        <linearGradient x1="50%" y1="0%" x2="50%" y2="100%" id="linearGradient-4">
            <stop stop-color="#F9D56A" offset="0%"></stop>
            <stop stop-color="#F2903C" offset="100%"></stop>
        </linearGradient>
        <linearGradient x1="50%" y1="0%" x2="50%" y2="100%" id="linearGradient-5">
            <stop stop-color="#EC91BD" offset="0%"></stop>
            <stop stop-color="#D45888" offset="100%"></stop>
        </linearGradient>
        <path d="M0.459753368,4.75245232 C2.62230807,1.44138812 5.53851484,0.282867869 10.0629132,0.282867869 C14.5873116,0.282867869 25.7242922,-1.48505631 30.0166701,3.81871623 C34.3090481,9.12248878 25.3103843,13.6768696 14.5995341,13.6924203 C3.88868386,13.7077817 -1.70280133,8.06351651 0.459753368,4.75245232 Z" id="path-6"></path>
        <linearGradient x1="19.6820528%" y1="27.0242012%" x2="65.7895461%" y2="60.9285949%" id="linearGradient-8">
            <stop stop-color="#E887B3" offset="0%"></stop>
            <stop stop-color="#A6439F" offset="100%"></stop>
        </linearGradient>
        <path d="M4.76395359,0 C5.71440382,5.07042254 7.45689592,8.12877264 9.99142988,9.1750503 C11.1794927,8.08853119 12.8427806,7.48490946 13.5556183,9.1750503 C14.0308434,10.3018109 13.3576078,11.2273642 11.5359115,11.9517103 C11.1398906,17.8269618 11.8131262,21.1267606 13.5556183,21.8511066 C16.1693564,22.9376258 11.0606864,25.7142857 9.2785922,25.7142857 C7.49649801,25.7142857 4.88275987,25.5935614 2.50663429,22.5754527 C4.28872847,22.334004 4.64514731,21.0060362 4.64514731,19.5573441 C4.64514731,18.5915493 4.6847494,17.7062374 4.76395359,16.9014085 C2.38782801,16.7404427 0.922550563,15.4124748 0.36812126,12.917505 C0.0175434527,11.3398809 -0.421158646,6.88888337 0.843346376,3.86317907 C1.33352998,2.69026903 2.64039905,1.40254267 4.76395359,0 Z" id="path-9"></path>
        <linearGradient x1="100%" y1="3.61033283%" x2="30.6363192%" y2="68.1608251%" id="linearGradient-11">
            <stop stop-color="#FEBDB5" offset="0%"></stop>
            <stop stop-color="#FFD0C9" offset="100%"></stop>
        </linearGradient>
    </defs>
    <g id="20230128-修改优化" stroke="none" stroke-width="1" fill="none" fill-rule="evenodd">
        <g id="我的达人-（全部）" transform="translate(-272.000000, -395.000000)">
            <g id="编组-2" transform="translate(252.000000, 329.000000)">
                <g id="达人/1" transform="translate(10.000000, 66.000000)">
                    <g id="img/默认女头像" transform="translate(10.000000, 0.000000)">
                        <g id="img/性别/女">
                            <g id="头像位" transform="translate(9.904762, 6.444091)"></g>
                            <g id="头像-女" transform="translate(20.000000, 20.000000) scale(-1, 1) translate(-20.000000, -20.000000) ">
                                <mask id="mask-3" fill="white">
                                    <use xlink:href="#path-2"></use>
                                </mask>
                                <use id="椭圆形" fill="url(#linearGradient-1)" xlink:href="#path-2"></use>
                                <g id="女-默认备份" mask="url(#mask-3)">
                                    <g transform="translate(6.206349, 3.586948)">
                                        <g id="头发" transform="translate(1.650794, 0.000000)">
                                            <path d="M0,27.9844803 L14.5062923,30.8571429 L28.1204073,28.5743339 L29.7777778,26.6519684 C26.4630367,21.1251677 24.4110542,16.4394019 23.6218301,12.594671 C22.4379941,6.82757464 18.8864858,-1.82306992 11.3099349,0.339591215 C3.73338392,2.50225236 1.9576298,8.99023578 5.27237083,11.5133404 C8.58711187,14.0364451 5.90410694,13.9146675 5.27237083,16.7998454 C4.64063473,19.6850234 4.08853475,22.3266461 2.54954784,23.4079767 C1.52355657,24.1288638 0.673707287,25.6543649 0,27.9844803 Z" id="路径-17" fill="url(#linearGradient-4)"></path>
                                        </g>
                                        <g id="衣服" transform="translate(15.555556, 31.281127) scale(-1, 1) translate(-15.555556, -31.281127) translate(0.000000, 24.434917)">
                                            <mask id="mask-7" fill="white">
                                                <use xlink:href="#path-6"></use>
                                            </mask>
                                            <use id="路径-18" fill="url(#linearGradient-5)" xlink:href="#path-6"></use>
                                            <path d="M-1.71760655,3.34726978 C4.23758447,6.33309729 7.21517998,9.3189248 7.21517998,12.3047523 C7.21517998,15.2905798 9.80607477,13.5619428 14.9878644,7.11884137 L10.2314456,0.0471446449 L4.31492461,-2.66367243 L-1.71760655,3.34726978 Z" id="路径-26" fill="url(#linearGradient-8)" mask="url(#mask-7)" transform="translate(6.635129, 5.529674) scale(-1, 1) translate(-6.635129, -5.529674) "></path>
                                        </g>
                                        <g id="面颈" transform="translate(7.428571, 2.285714)">
                                            <mask id="mask-10" fill="white">
                                                <use xlink:href="#path-9"></use>
                                            </mask>
                                            <use id="路径-16" fill="#FFD0C9" xlink:href="#path-9"></use>
                                            <path d="M7.14007917,16.1770624 C6.18962894,18.4305835 5.23917871,19.5573441 4.28872847,19.5573441 C3.33827824,19.5573441 3.41748243,18.7122736 4.52634103,17.0221328 C5.0681303,16.9676865 5.50375332,16.8872036 5.8332101,16.7806841 C6.16266689,16.6741646 6.59828991,16.4729573 7.14007917,16.1770624 Z" id="路径-24" fill="url(#linearGradient-11)" mask="url(#mask-10)"></path>
                                            <path d="M10.1102362,9.1750503 C10.9814822,13.1991952 11.1398906,15.8551308 10.5854613,17.1428571 C9.75381732,19.0744467 9.99142988,25.110664 6.18962894,25.110664 C3.65509498,25.110664 4.84315778,26.277666 9.75381732,28.61167 L15.9317438,25.7142857 L18.3078694,18.4708249 C16.7237857,10.4225352 15.9317438,6.39839034 15.9317438,6.39839034 C15.9317438,6.39839034 14.704079,6.1167002 12.2487492,5.55331992 L10.1102362,9.1750503 Z" id="路径-25" fill-opacity="0.5" fill="#FEBDB5" mask="url(#mask-10)"></path>
                                        </g>
                                    </g>
                                </g>
                            </g>
                        </g>
                        <g id="女" transform="translate(30.000000, 30.000000)">
                            <rect id="矩形" stroke="#FFFFFF" stroke-width="0.503220612" fill="#FF7992" x="0" y="0" width="10" height="10" rx="5"></rect>
                            <g id="icon/女" transform="translate(2.222222, 2.222222)" fill="#FFFFFF">
                                <path d="M0.485252892,5.55555556 C0.410076382,5.55555556 0.337906933,5.52439708 0.286786906,5.47142768 C0.172518611,5.35614133 0.16951155,5.1691905 0.280772785,5.05078831 L0.662669455,4.64261233 L0.106363282,4.18458279 C0.0462220743,4.13472923 0.00713028911,4.06306475 0.00111616832,3.98516857 C-0.00489795247,3.90727239 0.0131444099,3.82937621 0.0612573762,3.76705926 C0.115384463,3.69539478 0.199582154,3.65488876 0.286786906,3.65488876 C0.349935174,3.65488876 0.416090503,3.67669969 0.464203469,3.72032156 L1.06561555,4.21574126 L1.51366755,3.73590079 L1.51968167,3.7296691 L1.59185112,3.65800461 L1.53471697,3.57076089 C1.20394033,3.07222534 1.08065085,2.46775098 1.18589796,1.87262417 C1.37834983,0.788309341 2.28948913,0 3.35098145,0 C3.48329211,0 3.61860982,0.0124633888 3.75092048,0.0373901664 C4.94472346,0.264847012 5.7385874,1.45821649 5.51907199,2.69520783 C5.32662013,3.77952265 4.41548083,4.56783199 3.35398851,4.56783199 C3.22167785,4.56783199 3.08636013,4.5553686 2.95404948,4.53044183 C2.63229401,4.46812488 2.3376021,4.34037515 2.07298078,4.14407677 L1.98878309,4.08175983 L1.51066049,4.59275877 L2.00682545,5.00093475 C2.13011493,5.10375771 2.15116435,5.29070854 2.05193136,5.41845828 C1.99780427,5.49012276 1.91360658,5.53062878 1.82640183,5.53062878 C1.76325356,5.53062878 1.69709823,5.50881785 1.64898527,5.46519599 L1.10771439,5.01962984 L0.686725939,5.46831183 C0.638612972,5.52439708 0.563436462,5.55555556 0.485252892,5.55555556 Z M3.35098145,0.563968343 C2.55411044,0.563968343 1.86850067,1.15597931 1.72416178,1.96921543 C1.64297114,2.41789743 1.73919708,2.87592696 1.98878309,3.25294448 C2.24137616,3.62996199 2.61725871,3.88234561 3.05027541,3.96647348 C3.1495084,3.98516857 3.2487414,3.99451611 3.35098145,3.99451611 C4.14785245,3.99451611 4.83346222,3.40250514 4.97780112,2.58926902 C5.05899175,2.14058703 4.96276582,1.68567333 4.71317981,1.30553998 C4.46058674,0.928522465 4.08470419,0.676138842 3.65168749,0.592010968 C3.5524545,0.573315885 3.45021444,0.563968343 3.35098145,0.563968343 L3.35098145,0.563968343 Z" id="形状"></path>
                            </g>
                        </g>
                    </g>
                </g>
            </g>
        </g>
    </g>
</svg>