<?xml version="1.0" encoding="UTF-8"?>
<svg width="17px" height="17px" viewBox="0 0 17 17" version="1.1" xmlns="http://www.w3.org/2000/svg" xmlns:xlink="http://www.w3.org/1999/xlink">
    <title>icon/赞量</title>
    <g id="营销-发布-品宣" stroke="none" stroke-width="1" fill="none" fill-rule="evenodd">
        <g id="任务数据-列表" transform="translate(-359.000000, -340.000000)">
            <g id="1-任务" transform="translate(228.000000, 201.000000)">
                <g id="2-点赞" transform="translate(131.000000, 138.000000)">
                    <g id="icon/赞量" transform="translate(0.000000, 1.000000)">
                        <rect id="矩形" x="0" y="0" width="17" height="17"></rect>
                        <path d="M14.2803426,5.2935254 L9.846776,5.2935254 C10.0573115,4.57079177 10.1639185,3.92853607 10.1639185,3.36310022 C10.1639185,2.08015658 8.96177697,0.851561676 7.81106395,1.01460787 C6.79642221,1.15831846 6.31213703,1.99288506 6.31213703,3.06470478 L6.31213703,4.03305287 C6.31213703,5.27523496 5.33767381,6.33451266 4.09856803,6.45104888 L2.12767733,6.44791338 C1.50487834,6.44791338 1,6.94041773 1,7.54795263 L1,13.8999607 C1,14.5077259 1.5046423,15 2.12767733,15 L13.0460582,15 C13.8722932,15 14.5817776,14.4268862 14.7356992,13.6350107 L15.9699836,7.28300256 C16.0652219,6.79218314 15.9312655,6.28549407 15.6045688,5.90082318 C15.277872,5.51615229 14.7924278,5.29352478 14.2803426,5.2935254 Z M2.0714274,13.8999607 L2.0714274,7.54795263 C2.0714274,7.51764276 2.09660594,7.49308131 2.12767733,7.49308131 L3.41071164,7.49308131 L3.41071164,13.9548321 L2.12767733,13.9548321 C2.09661135,13.9548321 2.0714274,13.9302653 2.0714274,13.8999607 L2.0714274,13.8999607 Z M14.9173062,7.08860132 L13.6830218,13.4406094 C13.6248649,13.739004 13.3574292,13.9548321 13.0460582,13.9548321 L4.48213903,13.9548321 L4.48213903,7.44709392 C6.16304244,7.13406911 7.38003339,5.70184442 7.38356442,4.03253028 L7.38356442,3.06470478 C7.38356442,2.4511912 7.58552849,2.10262769 7.96481378,2.04932413 C8.41749186,1.9850463 9.09249112,2.67537972 9.09249112,3.36362281 C9.09249112,3.97295571 8.93338415,4.73540572 8.60927736,5.64522441 C8.55239973,5.8050236 8.57833224,5.98179492 8.67887148,6.11961903 C8.77941071,6.25744313 8.94211943,6.33927043 9.11552681,6.33921591 L14.2803426,6.33921591 C14.4732645,6.33922919 14.6561551,6.42306808 14.7792936,6.5679401 C14.9024321,6.71281213 14.9530206,6.90366058 14.9173062,7.08860132 Z" id="形状" fill="#666666" fill-rule="nonzero"></path>
                    </g>
                </g>
            </g>
        </g>
    </g>
</svg>