<?xml version="1.0" encoding="UTF-8"?>
<svg width="41px" height="41px" viewBox="0 0 41 41" version="1.1" xmlns="http://www.w3.org/2000/svg" xmlns:xlink="http://www.w3.org/1999/xlink">
    <title>img/头像-默认男@2x</title>
    <defs>
        <linearGradient x1="50%" y1="0%" x2="50%" y2="100%" id="linearGradient-1">
            <stop stop-color="#F1F0FF" offset="0%"></stop>
            <stop stop-color="#CECFFF" offset="100%"></stop>
        </linearGradient>
        <circle id="path-2" cx="20" cy="20" r="20"></circle>
        <linearGradient x1="50%" y1="0%" x2="50%" y2="100%" id="linearGradient-4">
            <stop stop-color="#ADB3FB" offset="0%"></stop>
            <stop stop-color="#686DF6" offset="100%"></stop>
        </linearGradient>
        <path d="M0.385670678,6.1209917 C2.54822538,2.80992751 7.03529663,0.282867869 11.559695,0.282867869 C16.0840934,0.282867869 27.221074,-1.48505631 31.5134519,3.81871623 C35.8058299,9.12248878 26.8071661,13.6768696 16.0963159,13.692409 C5.38546565,13.7077817 -1.77688402,9.4320559 0.385670678,6.1209917 Z" id="path-5"></path>
        <linearGradient x1="14.6970384%" y1="25.6204364%" x2="61.3871358%" y2="50%" id="linearGradient-7">
            <stop stop-color="#9C9BF3" offset="0%"></stop>
            <stop stop-color="#6362E3" offset="100%"></stop>
        </linearGradient>
        <path d="M4.6518356,0 C12.2311696,3.61442277 13.9326528,6.60025028 9.75628504,8.95748252 C10.9163872,7.89672801 12.5405302,7.30741995 13.2365915,8.95748252 C13.7006323,10.0575242 13.0432411,10.9611299 11.2644178,11.6682996 C10.8777171,17.4042314 11.5351083,20.6257821 13.2365915,21.3329518 C15.7888162,22.3937063 10.800377,25.1045234 9.06022375,25.1045234 C7.32007053,25.1045234 4.76784581,24.9866618 2.44764152,22.0401215 C4.18779474,21.8043982 4.53582538,20.5079205 4.53582538,19.0935812 C4.53582538,18.1506883 4.57449545,17.2863698 4.6518356,16.5006257 C2.3316313,16.3434769 0.900838655,15.0469991 0.359457653,12.6111925 C0.0171305736,11.0709785 -0.411246824,6.72552742 0.823498512,3.77157159 C1.30214582,2.62647473 2.57825818,1.3692842 4.6518356,0 Z" id="path-8"></path>
        <linearGradient x1="100%" y1="2.97643778%" x2="30.6363192%" y2="68.4089851%" id="linearGradient-10">
            <stop stop-color="#FEBDB5" offset="0%"></stop>
            <stop stop-color="#FFD0C9" offset="100%"></stop>
        </linearGradient>
        <linearGradient x1="50%" y1="0%" x2="50%" y2="100%" id="linearGradient-11">
            <stop stop-color="#F09862" offset="0%"></stop>
            <stop stop-color="#DE5827" offset="100%"></stop>
        </linearGradient>
    </defs>
    <g id="20230128-修改优化" stroke="none" stroke-width="1" fill="none" fill-rule="evenodd">
        <g id="我的达人-（全部）" transform="translate(-208.000000, -399.000000)">
            <g id="img/头像-默认男" transform="translate(208.000000, 399.000000)">
                <g id="img/性别/女" transform="translate(0.000000, -1.142857)">
                    <g id="头像-男" transform="translate(0.000000, 1.142857)">
                        <mask id="mask-3" fill="white">
                            <use xlink:href="#path-2"></use>
                        </mask>
                        <use id="椭圆形" fill="url(#linearGradient-1)" xlink:href="#path-2"></use>
                        <g id="头像位" mask="url(#mask-3)">
                            <g transform="translate(19.081724, 20.833328) scale(-1, 1) translate(-19.081724, -20.833328) translate(2.777778, 1.666667)" id="男-选中备份">
                                <g id="衣服" transform="translate(0.000000, 24.640913)">
                                    <mask id="mask-6" fill="white">
                                        <use xlink:href="#path-5"></use>
                                    </mask>
                                    <use id="路径-18" fill="url(#linearGradient-4)" xlink:href="#path-5"></use>
                                    <path d="M18.6363181,3.34726978 C24.5915091,6.33309729 27.5691046,9.3189248 27.5691046,12.3047523 C27.5691046,15.2905798 30.1599994,13.5619428 35.341789,7.11884137 L30.5853702,0.0471446449 L24.6688493,-2.66367243 L18.6363181,3.34726978 Z" id="路径-26" fill="url(#linearGradient-7)" mask="url(#mask-6)"></path>
                                </g>
                                <g id="面颈" transform="translate(9.112053, 2.883659)">
                                    <mask id="mask-9" fill="white">
                                        <use xlink:href="#path-8"></use>
                                    </mask>
                                    <use id="路径-16" fill="#FFD0C9" xlink:href="#path-8"></use>
                                    <path d="M6.97203989,15.793456 C6.04395817,17.9935395 5.11587645,19.0935812 4.18779474,19.0935812 C3.25971302,19.0935812 3.37572323,18.2292627 4.53582538,16.5006257 C5.10591164,16.5035182 5.53128243,16.464231 5.81193774,16.3827641 C6.09259306,16.3012972 6.47929378,16.1048611 6.97203989,15.793456 Z" id="路径-24" fill="url(#linearGradient-10)" mask="url(#mask-9)"></path>
                                    <path d="M9.87229526,8.95748252 C9.87229526,12.5719053 9.98830547,14.7719887 10.2203259,15.5577328 C10.5683565,16.7363489 9.75628504,24.5152153 6.04395817,24.5152153 C3.56907359,24.5152153 4.72917574,25.6545442 9.52426461,27.9332021 L15.5567958,25.1045234 L17.8770001,18.0328267 C16.3301972,10.1753858 15.5567958,6.24666544 15.5567958,6.24666544 C15.5567958,6.24666544 14.3580236,5.97165501 11.9604791,5.42163416 L9.87229526,8.95748252 Z" id="路径-25" fill-opacity="0.5" fill="#FEBDB5" mask="url(#mask-9)"></path>
                                </g>
                                <g id="头发" transform="translate(8.139382, 0.000000)" fill="url(#linearGradient-11)">
                                    <path d="M0.056017022,4.53372203 C-0.292013622,7.48026233 1.10010895,7.1266775 0.984098739,9.71963296 C1.33212938,8.06957039 1.68016003,7.59812394 1.696161,6.59554842 L2.80648482,5.33092058 C3.50484768,4.91232941 4.30316984,4.57724997 5.11347571,4.54724687 C6.21400734,4.50649762 6.93955816,4.22716582 7.8287014,4.88730687 C8.56441394,5.43353386 8.40875248,6.1837846 8.87279334,7.24453911 C9.3368342,8.30529362 9.83468181,8.21244617 10.2649159,8.89460168 C11.1249629,10.2582449 10.2584925,10.8587523 10.9609772,12.3125884 C11.1792806,12.764381 11.8146727,10.8417046 12.5851202,10.8982491 C13.3555677,10.9547935 13.4995305,10.8993111 13.7452224,11.3696955 C14.0485692,11.9504622 14.132499,12.9644587 13.7452224,13.4912046 C13.200712,14.2318083 11.4266743,14.9722224 12.2370896,14.5519591 L12.0050691,17.2627761 C13.5581914,16.4573614 14.1242466,14.9930494 14.6748232,13.3120971 C17.3950954,5.00689932 14.4515662,2.5808834 9.99799477,1.32453163 C8.31806158,0.850622761 7.86423447,0.536442421 5.97253797,0.17284238 C1.68016003,-0.652188904 0.404047666,1.58718173 0.056017022,4.53372203 Z" id="路径-27"></path>
                                </g>
                            </g>
                        </g>
                    </g>
                </g>
                <g id="icon/男" transform="translate(30.000000, 30.000000)">
                    <circle id="椭圆形" stroke="#FFFFFF" stroke-width="0.555555556" fill="#4FACFF" cx="5" cy="5" r="5"></circle>
                    <path d="M7.58756039,2.23092544 C7.56642512,2.2251233 7.54528986,2.22222222 7.52415459,2.22222222 L6.01751208,2.22222222 C5.84842995,2.22222222 5.71256039,2.35277053 5.71256039,2.51523064 C5.71256039,2.67769075 5.84842995,2.80823905 6.01751208,2.80823905 L6.74516908,2.80823905 L5.76992754,3.74528576 C5.4076087,3.51610096 4.97584541,3.37975051 4.51086957,3.37975051 C3.24879227,3.37975051 2.22222222,4.36611546 2.22222222,5.57876414 C2.22222222,6.79141282 3.24879227,7.77777778 4.51086957,7.77777778 C5.77294686,7.77777778 6.79951691,6.79141282 6.79951691,5.57876414 C6.79951691,5.02465912 6.58514493,4.51697128 6.23188406,4.12822744 L7.1678744,3.22889469 L7.1678744,3.90774587 C7.1678744,4.07020598 7.30374396,4.20075428 7.47282609,4.20075428 C7.64190821,4.20075428 7.77777778,4.07020598 7.77777778,3.90774587 L7.77777778,2.46301131 C7.77475845,2.35277053 7.69625604,2.2570351 7.58756039,2.23092544 Z M4.50785024,7.24978242 C3.55072464,7.24978242 2.77173913,6.50130548 2.77173913,5.58166522 C2.77173913,4.66202495 3.55072464,3.91354801 4.50785024,3.91354801 C5.46497585,3.91354801 6.24396135,4.66202495 6.24396135,5.58166522 C6.24396135,6.50130548 5.46497585,7.24978242 4.50785024,7.24978242 Z" id="形状" fill="#FFFFFF" fill-rule="nonzero"></path>
                </g>
            </g>
        </g>
    </g>
</svg>