<?xml version="1.0" encoding="UTF-8"?>
<svg width="11px" height="11px" viewBox="0 0 11 11" version="1.1" xmlns="http://www.w3.org/2000/svg" xmlns:xlink="http://www.w3.org/1999/xlink">
    <title>二维码</title>
    <g id="20230216-达人详情整合改版" stroke="none" stroke-width="1" fill="none" fill-rule="evenodd">
        <g id="达人详情-任务" transform="translate(-462.000000, -99.000000)" fill="#5D5D5D" fill-rule="nonzero">
            <g id="达人基本信息栏" transform="translate(243.000000, 70.000000)">
                <g id="二维码-手机扫可跳抖音" transform="translate(217.000000, 27.000000)">
                    <g id="二维码" transform="translate(2.000000, 2.000000)">
                        <path d="M4.2663904,0.00385980997 L4.2663904,0 L1.17352343,0 C0.527352465,0 0.00403261727,0.51979266 0.000345648888,1.16243676 L1.43979325e-05,1.16243676 L1.43979325e-05,4.08396791 C1.43979325e-05,4.11870622 0.00705709782,4.15128416 0.0174555151,4.18249391 C0.11144454,4.73485012 0.592133757,5.15592956 1.17352345,5.15592956 L4.2663904,5.15592956 L4.2663904,5.15258822 C4.81356036,5.118354 5.25830157,4.71117276 5.34726422,4.18249389 C5.35800829,4.15128415 5.36541105,4.1187062 5.36541105,4.0839679 L5.36541105,1.16243676 L5.36505099,1.16243676 C5.36202652,0.544795009 4.87731907,0.0421410699 4.2663904,0.00385980997 Z M4.74777093,3.92552843 C4.74777093,4.26539342 4.47113267,4.54064978 4.13010198,4.54064978 L1.2349346,4.54064978 C0.893903927,4.54064978 0.617654521,4.26539342 0.617654521,3.92552843 L0.617654521,1.23058834 C0.617654521,0.890708948 0.893903913,0.615294168 1.2349346,0.615294168 L4.13011639,0.615294168 C4.47114706,0.615294168 4.74777093,0.89072336 4.74777093,1.23058834 L4.74777093,3.92552843 L4.74777093,3.92552843 Z M10.9996399,1.13392024 C10.9966011,0.531544908 10.5236747,0.0411329024 9.92783953,0.00368697804 L9.92783953,0 L7.22969479,0 C6.59930869,0 6.08910928,0.507205062 6.08539351,1.13390584 L6.08506225,1.13390584 L6.08506225,3.9841025 C6.08506225,4.01799105 6.0917737,4.0498777 6.10251777,4.08025211 C6.19382798,4.6191854 6.66309621,5.02988079 7.22970921,5.02988079 L9.92785394,5.02988079 L9.92785394,5.02669788 C10.4615722,4.99312616 10.8952381,4.5958393 10.9828757,4.0802521 C10.9932742,4.04987769 11,4.01799104 11,3.98410248 L11,1.13392024 L10.9996399,1.13392024 Z M10.3974678,3.82952284 C10.3974678,4.16099129 10.1279155,4.42969462 9.79490683,4.42969462 L7.2901266,4.42969462 C6.95714678,4.42969462 6.68726318,4.16099129 6.68726318,3.82952284 L6.68726318,1.20035796 C6.68726318,0.868875109 6.95714678,0.60018618 7.2901266,0.60018618 L9.79490684,0.60018618 C10.1279155,0.60018618 10.3974678,0.868889507 10.3974678,1.20035796 L10.3974678,3.82952284 Z M4.15160453,5.98637938 L4.15160453,5.98270678 L1.14195372,5.98270678 C0.513252681,5.98270678 0.00370136632,6.48858684 0.000331250956,7.1139338 L0,7.1139338 L0,9.95656927 C0,9.99063066 0.00672584686,10.0225461 0.0171098662,10.0525749 C0.108088822,10.5899527 0.576348909,11 1.14195374,11 L4.15160453,11 L4.15160453,10.9966731 C4.68395458,10.963591 5.11664112,10.5669955 5.20357305,10.0525749 C5.21430271,10.0225461 5.22104297,9.99063066 5.22104297,9.95656927 L5.22104297,7.11393381 L5.22035166,7.11393381 C5.2173272,6.51305632 4.74608585,6.02366687 4.15160453,5.98637938 Z M4.62021026,9.80266651 C4.62021026,10.133314 4.35098917,10.4011676 4.01934875,10.4011676 L1.29837646,10.4011676 C1.29837646,10.4011676 1.29805961,10.4011676 1.29771396,10.4011676 L1.20169422,10.4011676 C0.870053802,10.4011676 0.600861508,10.133314 0.600861508,9.80266653 L0.600861508,7.17988185 C0.600861508,6.84956557 0.870053802,6.58136633 1.20169422,6.58136633 L4.01936315,6.58136633 C4.35100357,6.58136633 4.62021026,6.84956557 4.62021026,7.17988185 L4.62021026,9.80266651 L4.62021026,9.80266651 Z M8.45090407,8.98748311 C8.24342538,8.98748311 8.07558165,9.14945115 8.07558165,9.34918195 L8.07558165,10.0725364 C8.07558165,10.2727857 8.24341097,10.4345521 8.45090407,10.4345521 C8.65831075,10.4345521 8.82616887,10.2728001 8.82616887,10.0725364 L8.82616887,9.34918195 C8.82616887,9.14945115 8.65832514,8.98748311 8.45090407,8.98748311 Z M10.0500425,8.62546743 C9.84259267,8.62546743 9.67474893,8.78724823 9.67474893,8.98713746 L9.67474893,10.072522 C9.67474893,10.2725841 9.84257825,10.4342497 10.0500425,10.4342497 C10.2578237,10.4342497 10.4256674,10.2725697 10.4256674,10.072522 L10.4256674,8.98713746 C10.4256674,8.78726262 10.2578093,8.62546743 10.0500425,8.62546743 Z M10.0500425,6.4548423 C9.84259267,6.4548423 9.67474893,6.61678153 9.67474893,6.8168724 L9.67474893,7.54022688 C9.67474893,7.73992888 9.84257825,7.90189691 10.0500425,7.90189691 C10.2578237,7.90189691 10.4256674,7.73992887 10.4256674,7.54022688 L10.4256674,6.8168724 C10.4256674,6.61679593 10.2578093,6.4548423 10.0500425,6.4548423 Z M8.45090407,6.45517356 C8.24342538,6.45517356 8.07558165,6.61712718 8.07558165,6.81701642 L8.07558165,8.26427265 C8.07558165,8.46401787 8.24341097,8.62578427 8.45090407,8.62578427 C8.65831075,8.62578427 8.82616887,8.46403227 8.82616887,8.26427265 L8.82616887,6.81701642 C8.82616887,6.61712718 8.65832514,6.45517356 8.45090407,6.45517356 Z M6.83091113,8.26427265 C6.62416696,8.26427265 6.45596317,8.42521813 6.45596317,8.62546741 L6.45596317,10.0725364 C6.45596317,10.2725985 6.62416695,10.4342641 6.83091113,10.4342641 C7.03903793,10.4342641 7.20686725,10.2725841 7.20686725,10.0725364 L7.20686725,8.62546743 C7.20688164,8.42521813 7.03903793,8.26427265 6.83091113,8.26427265 Z M6.83091113,6.4548423 C6.62416696,6.4548423 6.45596317,6.61678153 6.45596317,6.8168724 L6.45596317,7.17871526 C6.45596317,7.37859009 6.62416695,7.54022688 6.83091113,7.54022688 C7.03903793,7.54022688 7.20686725,7.3785901 7.20686725,7.17871526 L7.20686725,6.8168724 C7.20688164,6.61679593 7.03903793,6.4548423 6.83091113,6.4548423 Z" id="形状"></path>
                    </g>
                </g>
            </g>
        </g>
    </g>
</svg>