<?xml version="1.0" encoding="UTF-8"?>
<svg width="16px" height="16px" viewBox="0 0 16 16" version="1.1" xmlns="http://www.w3.org/2000/svg" xmlns:xlink="http://www.w3.org/1999/xlink">
    <title>icon/寄样-选中</title>
    <g id="20230216-达人详情整合改版" stroke="none" stroke-width="1" fill="none" fill-rule="evenodd">
        <g id="达人详情-视频分析" transform="translate(-278.000000, -373.000000)">
            <g id="二次筛选" transform="translate(243.000000, 286.000000)">
                <g id="icon/寄样-选中" transform="translate(35.000000, 87.000000)">
                    <rect id="矩形备份-7" x="0" y="0" width="16" height="16"></rect>
                    <g id="编组" transform="translate(1.000000, 0.500000)" fill="#333333" fill-rule="nonzero">
                        <path d="M12.8851852,2.76724138 L7.95925926,0.232758621 C7.36296296,-0.0775862069 6.63703704,-0.0775862069 6.04074074,0.232758621 L1.11481481,2.79310345 C0.440740741,3.10344828 0,3.82758621 0,4.60344828 L0,10.3706897 C0,11.1465517 0.440740741,11.8448276 1.11481481,12.2068966 L6.06666667,14.7672414 C6.35185185,14.9224138 6.68888889,15 7.02592593,15 C7.36296296,15 7.67407407,14.9224138 7.98518519,14.7672414 L12.8851852,12.2327586 C13.5851852,11.8706897 14,11.1724138 14,10.3965517 L14,4.60344828 C14,3.82758621 13.5592593,3.10344828 12.8851852,2.76724138 Z M6.53333333,1.13793103 C6.68888889,1.06034483 6.84444444,1.00862069 7,1.00862069 C7.15555556,1.00862069 7.33703704,1.03448276 7.46666667,1.11206897 L12.3925926,3.64655172 C12.4703704,3.67241379 12.5222222,3.72413793 12.6,3.77586207 L7,6.67241379 L1.4,3.82758621 C1.45185185,3.77586207 1.52962963,3.72413793 1.60740741,3.69827586 L6.53333333,1.13793103 Z M1.60740741,11.2758621 C1.24444444,11.0948276 1.03703704,10.7327586 1.03703704,10.3448276 L1.03703704,4.78448276 L3.11111111,5.84482759 L3.11111111,8.17241379 C3.11111111,8.37931034 3.21481481,8.56034483 3.3962963,8.63793103 L3.75925926,8.81896552 C3.78518519,8.84482759 3.83703704,8.84482759 3.86296296,8.84482759 C4.01851852,8.84482759 4.12222222,8.74137931 4.12222222,8.5862069 L4.12222222,6.36206897 L6.45555556,7.55172414 L6.45555556,13.7844828 L1.60740741,11.2758621 Z M12.3925926,11.2758621 L7.51851852,13.8103448 L7.51851852,7.55172414 L12.962963,4.78448276 L12.962963,10.3448276 C12.962963,10.7327586 12.7555556,11.0948276 12.3925926,11.2758621 L12.3925926,11.2758621 Z" id="形状"></path>
                    </g>
                </g>
            </g>
        </g>
    </g>
</svg>