<?xml version="1.0" encoding="UTF-8"?>
<svg width="17px" height="17px" viewBox="0 0 17 17" version="1.1" xmlns="http://www.w3.org/2000/svg" xmlns:xlink="http://www.w3.org/1999/xlink">
    <title>icon/分享量</title>
    <g id="营销-发布-品宣" stroke="none" stroke-width="1" fill="none" fill-rule="evenodd">
        <g id="任务数据-列表" transform="translate(-536.000000, -340.000000)">
            <g id="1-任务" transform="translate(228.000000, 201.000000)">
                <g id="4-分享" transform="translate(308.000000, 138.000000)">
                    <g id="icon/分享量" transform="translate(8.500000, 9.500000) scale(-1, 1) translate(-8.500000, -9.500000) translate(0.000000, 1.000000)">
                        <rect id="矩形" x="0" y="0" width="17" height="17"></rect>
                        <path d="M13.7280576,16 C13.6906475,16 13.6438849,16 13.6064748,15.9806378 C13.3539568,15.9225511 13.1669065,15.6805232 13.1669065,15.419133 C13.1669065,12.2727702 11.1467626,9.59110102 8.26618705,8.8069306 L8.26618705,11.9048878 C8.26618705,12.1372346 8.1352518,12.3502192 7.9294964,12.4373492 C7.72374101,12.5244793 7.48057554,12.4857548 7.32158273,12.3211758 L2.17769784,7.257952 C2.06546763,7.15145972 2.00935252,6.99656186 2,6.841664 C2,6.68676614 2.05611511,6.53186828 2.16834532,6.425376 L7.31223022,1.16852986 C7.47122302,1.00395088 7.71438849,0.955545299 7.92014388,1.04267535 C8.12589928,1.12980539 8.26618705,1.34278995 8.26618705,1.57513674 L8.26618705,4.25680595 C12.0820144,4.76990511 15,8.1486147 15,12.1953213 C15,13.415142 14.7381295,14.586557 14.2330935,15.6805232 C14.1302158,15.8741455 13.9338129,16 13.7280576,16 L13.7280576,16 Z M7.70503597,7.4999799 C7.73309353,7.4999799 7.76115108,7.4999799 7.79856115,7.50966102 C9.5942446,7.80977563 11.2402878,8.75852502 12.4280576,10.2010113 C13.0640288,10.9658195 13.5410072,11.83712 13.8589928,12.7761883 C13.8776978,12.582566 13.8776978,12.3889436 13.8776978,12.1953213 C13.8776978,8.58426493 11.1561151,5.58311888 7.6676259,5.36045321 C7.36834532,5.34109097 7.14388489,5.08938195 7.14388489,4.77958623 L7.14388489,2.95953637 L3.36546763,6.82230177 L7.14388489,10.5398504 L7.14388489,8.08084688 C7.14388489,7.90658679 7.21870504,7.75168893 7.34028777,7.63551553 C7.44316547,7.54838549 7.57410072,7.4999799 7.70503597,7.4999799 Z" id="形状" fill="#666666" fill-rule="nonzero"></path>
                    </g>
                </g>
            </g>
        </g>
    </g>
</svg>