<?xml version="1.0" encoding="UTF-8"?>
<svg width="16px" height="16px" viewBox="0 0 16 16" version="1.1" xmlns="http://www.w3.org/2000/svg" xmlns:xlink="http://www.w3.org/1999/xlink">
    <title>icon/视频-选中</title>
    <g id="20230216-达人详情整合改版" stroke="none" stroke-width="1" fill="none" fill-rule="evenodd">
        <g id="达人详情-寄样" transform="translate(-278.000000, -429.000000)">
            <g id="二次筛选" transform="translate(243.000000, 286.000000)">
                <g id="icon/视频-选中" transform="translate(35.000000, 143.000000)">
                    <rect id="矩形备份-5" x="0" y="0" width="16" height="16"></rect>
                    <path d="M13.4166667,1.5 C14.5672599,1.5 15.5,2.47004971 15.5,3.66666667 L15.5,12.3333333 C15.5,13.5299503 14.5672599,14.5 13.4166667,14.5 L2.58333333,14.5 C1.4327401,14.5 0.5,13.5299503 0.5,12.3333333 L0.5,3.66666667 C0.5,2.47004971 1.4327401,1.5 2.58333333,1.5 Z M13.4166667,2.36666667 L2.58333333,2.36666667 C1.8929774,2.36666667 1.33333333,2.94869649 1.33333333,3.66666667 L1.33333333,12.3333333 C1.33333333,13.0513035 1.8929774,13.6333333 2.58333333,13.6333333 L13.4166667,13.6333333 C14.1070226,13.6333333 14.6666667,13.0513035 14.6666667,12.3333333 L14.6666667,3.66666667 C14.6666667,2.94869649 14.1070226,2.36666667 13.4166667,2.36666667 Z M6.73417287,4.5 L6.86926884,4.50801648 C7.04818122,4.52931525 7.22119515,4.59274042 7.37587728,4.69452302 L9.90735249,6.36026239 C10.4895869,6.74337924 10.6742803,7.56419139 10.3198768,8.19359764 C10.2173119,8.37574863 10.0758519,8.52866953 9.90735249,8.63954405 L7.37587728,10.3052834 C6.79364286,10.6884003 6.03434775,10.4887433 5.67994419,9.85933701 C5.56225126,9.65031918 5.5,9.41033726 5.5,9.16564259 L5.5,5.83416385 C5.5,5.0973255 6.05255801,4.5 6.73417287,4.5 Z M6.73417287,5.38944257 C6.50696792,5.38944257 6.32278191,5.58855107 6.32278191,5.83416385 L6.32278191,9.16564259 C6.32278191,9.24720748 6.34353233,9.32720145 6.38276331,9.39687406 C6.50089783,9.60667615 6.7539962,9.67322849 6.94807434,9.54552287 L9.47954955,7.8797835 C9.53571602,7.84282532 9.58286935,7.79185169 9.61705764,7.73113469 C9.73519216,7.52133261 9.67362769,7.24772856 9.47954955,7.12002294 L6.94807434,5.45428357 C6.88362345,5.41187416 6.80962475,5.38944257 6.73417287,5.38944257 Z" id="形状结合" fill="#333333" fill-rule="nonzero"></path>
                </g>
            </g>
        </g>
    </g>
</svg>